Ostrich_Running_GRF_Data																		
version=1																		
nRows=145																		
nColumns=19																		
inDegrees=yes																		
endheader																		
time	ground_force_vx	ground_force_vy	ground_force_vz	ground_force_px	ground_force_py	ground_force_pz	1_ground_force_vx	1_ground_force_vy	1_ground_force_vz	1_ground_force_px	1_ground_force_py	1_ground_force_pz	ground_torque_x	ground_torque_y	ground_torque_z	1_ground_torque_x	1_ground_torque_y	1_ground_torque_z
-0.035	0	0	0	0	0	0	49.8101	1705.4306	-98.7989	0.12968	-0.018481	0.0013309	0	0	0	0	-3.848703161	0
-0.03	0	0	0	0	0	0	49.8101	1705.4306	-98.7989	0.12968	-0.018481	0.0013309	0	0	0	0	-3.848703161	0
-0.025	0	0	0	0	0	0	49.8101	1705.4306	-98.7989	0.12968	-0.018481	0.0013309	0	0	0	0	-3.848703161	0
-0.02	0	0	0	0	0	0	49.8101	1705.4306	-98.7989	0.12968	-0.018481	0.0013309	0	0	0	0	-3.848703161	0
-0.015	0	0	0	0	0	0	49.8101	1705.4306	-98.7989	0.12968	-0.018481	0.0013309	0	0	0	0	-3.848703161	0
-0.01	0	0	0	0	0	0	49.8101	1705.4306	-98.7989	0.12968	-0.018481	0.0013309	0	0	0	0	-3.848703161	0
-0.005	0	0	0	0	0	0	49.8101	1705.4306	-98.7989	0.12968	-0.018481	0.0013309	0	0	0	0	-3.848703161	0
0	0	0	0	0	0	0	49.8101	1705.4306	-98.7989	0.12968	-0.018481	0.0013309	0	0	0	0	-3.848703161	0
0.005	0	0	0	0	0	0	68.8569	1643.8766	-100.6879	0.13148	-0.018562	0.0023052	0	0	0	0	-4.169473842	0
0.01	0	0	0	0	0	0	86.4421	1575.4193	-101.0434	0.13336	-0.018506	0.0032238	0	0	0	0	-4.20119579	0
0.015	0	0	0	0	0	0	102.2156	1500.0558	-99.8216	0.13535	-0.018271	0.004097	0	0	0	0	-3.965595939	0
0.02	0	0	0	0	0	0	115.7359	1418.0423	-97.0972	0.13752	-0.017803	0.0049444	0	0	0	0	-3.51710863	0
0.025	0	0	0	0	0	0	126.5788	1330.0884	-92.9461	0.1399	-0.017038	0.0057862	0	0	0	0	-2.931223288	0
0.03	0	0	0	0	0	0	134.3811	1237.4209	-87.5183	0.14253	-0.015894	0.0066392	0	0	0	0	-2.284264754	0
0.035	0	0	0	0	0	0	138.8181	1141.6564	-81.0999	0.14544	-0.014286	0.0075285	0	0	0	0	-1.646073713	0
0.04	0	0	0	0	0	0	139.6487	1044.5977	-74.1128	0.14863	-0.012124	0.0084949	0	0	0	0	-1.083897788	0
0.045	0	0	0	0	0	0	136.8161	948.0664	-67.0323	0.15209	-0.0093228	0.0095959	0	0	0	0	-0.665754109	0
0.05	0	0	0	0	0	0	130.4343	853.848	-60.1479	0.15577	-0.0058113	0.010893	0	0	0	0	-0.430847999	0
0.055	0	0	0	0	0	0	120.8259	763.6199	-53.4712	0.15953	-0.0015649	0.012435	0	0	0	0	-0.368611092	0
0.06	0	0	0	0	0	0	108.6716	678.6695	-46.9652	0.16316	0.0033382	0.01425	0	0	0	0	-0.435487791	0
0.065	0	0	0	0	0	0	95.3327	599.382	-40.8054	0.1664	0.0086822	0.016336	0	0	0	0	-0.577858556	0
0.07	0	0	0	0	0	0	82.8673	524.9683	-35.3339	0.16899	0.014153	0.01866	0	0	0	0	-0.741740678	0
0.075	0	0	0	0	0	0	73.1306	454.2069	-30.773	0.17086	0.019437	0.02117	0	0	0	0	-0.884925893	0
0.08	0	0	0	0	0	0	66.6896	386.6565	-27.0451	0.17206	0.024312	0.0238	0	0	0	0	-0.983335556	0
0.085	0	0	0	0	0	0	62.6631	323.0688	-23.8684	0.17278	0.028656	0.026463	0	0	0	0	-1.025559462	0
0.09	0	0	0	0	0	0	59.4564	264.7533	-20.9882	0.17325	0.032415	0.029076	0	0	0	0	-1.011426845	0
0.095	0	0	0	0	0	0	55.678	212.7885	-18.2443	0.1737	0.035581	0.031596	0	0	0	0	-0.950294071	0
0.1	0	0	0	0	0	0	50.6252	167.7058	-15.5074	0.17437	0.03822	0.034052	0	0	0	0	-0.856336836	0
0.105	0	0	0	0	0	0	44.2312	129.6744	-12.6382	0.17547	0.040485	0.036533	0	0	0	0	-0.746386679	0
0.11	0	0	0	0	0	0	36.8504	98.7107	-9.597	0.17715	0.0426	0.03913	0	0	0	0	-0.64293662	0
0.115	0	0	0	0	0	0	29.2129	74.6096	-6.6144	0.17942	0.044748	0.04187	0	0	0	0	-0.566002344	0
0.12	0	0	0	0	0	0	22.1638	56.7851	-4.084	0.18229	0.046753	0.044766	0	0	0	0	-0.533432314	0
0.125	0	0	0	0	0	0	16.2574	44.2984	-2.2663	0.18586	0.04777	0.047729	0	0	0	0	-0.559241346	0
0.13	0	0	0	0	0	0	11.7042	36.0131	-1.1792	0.19073	0.045963	0.051311	0	0	0	0	-0.643791799	0
0.135	0	0	0	0	0	0	0	0	0	0	0	0	0	0	0	0	0	0
0.14	0	0	0	0	0	0	0	0	0	0	0	0	0	0	0	0	0	0
0.145	0	0	0	0	0	0	0	0	0	0	0	0	0	0	0	0	0	0
0.15	0	0	0	0	0	0	0	0	0	0	0	0	0	0	0	0	0	0
0.155	0	0	0	0	0	0	0	0	0	0	0	0	0	0	0	0	0	0
0.16	0	0	0	0	0	0	0	0	0	0	0	0	0	0	0	0	0	0
0.165	0	0	0	0	0	0	0	0	0	0	0	0	0	0	0	0	0	0
0.17	0	0	0	0	0	0	0	0	0	0	0	0	0	0	0	0	0	0
0.175	0	0	0	0	0	0	0	0	0	0	0	0	0	0	0	0	0	0
0.18	0	0	0	0	0	0	0	0	0	0	0	0	0	0	0	0	0	0
0.185	0	0	0	0	0	0	0	0	0	0	0	0	0	0	0	0	0	0
0.19	0	0	0	0	0	0	0	0	0	0	0	0	0	0	0	0	0	0
0.195	0	0	0	0	0	0	0	0	0	0	0	0	0	0	0	0	0	0
0.2	0	0	0	0	0	0	0	0	0	0	0	0	0	0	0	0	0	0
0.205	0	0	0	0	0	0	0	0	0	0	0	0	0	0	0	0	0	0
0.21	6.7666	20.8223	-0.6085	0.22535	-0.022122	0.060211	0	0	0	0	0	0	0	0.69257873	0	0	0	0
0.215	5.5678	22.9504	-0.2132	0.21492	-0.014889	0.062233	0	0	0	0	0	0	0	0.908529219	0	0	0	0
0.22	2.3203	31.2084	0.8693	0.20534	-0.0077215	0.063905	0	0	0	0	0	0	0	1.243927513	0	0	0	0
0.225	-3.9111	49.2914	2.9482	0.25166	-0.040258	-0.025482	0	0	0	0	0	0	0	1.492911912	0	0	0	0
0.23	-13.5793	80.2228	6.1771	0.2085	-0.037342	0.002002	0	0	0	0	0	0	0	1.5666821	0	0	0	0
0.235	-26.1952	125.7022	9.9372	0.18345	-0.033942	0.0153382	0	0	0	0	0	0	0	1.418022058	0	0	0	0
0.24	-41.204	187.7183	12.2861	0.16525	-0.031484	0.0226549	0	0	0	0	0	0	0	0.995837566	0	0	0	0
0.245	-57.8938	268.8135	12.3513	0.15097	-0.029764	0.0266926	0	0	0	0	0	0	0	0.377304616	0	0	0	0
0.25	-75.6336	370.0015	11.4074	0.13947	-0.028336	0.0288896	0	0	0	0	0	0	0	-0.263135593	0	0	0	0
0.255	-94.2435	487.1435	12.1564	0.13045	-0.026779	0.0299674	0	0	0	0	0	0	0	-0.750503351	0	0	0	0
0.26	-112.7054	611.5497	16.8122	0.12358	-0.025004	0.030314	0	0	0	0	0	0	0	-1.027204183	0	0	0	0
0.265	-129.4186	735.8012	25.6863	0.11829	-0.023208	0.030203	0	0	0	0	0	0	0	-1.155400506	0	0	0	0
0.27	-143.6184	854.975	36.6431	0.11418	-0.021502	0.0298634	0	0	0	0	0	0	0	-1.21226202	0	0	0	0
0.275	-154.2999	966.5107	46.5403	0.11094	-0.019939	0.0294753	0	0	0	0	0	0	0	-1.2616582	0	0	0	0
0.28	-160.7292	1070.2231	53.666	0.10832	-0.01858	0.0291192	0	0	0	0	0	0	0	-1.343585488	0	0	0	0
0.285	-163.6136	1167.8019	58.2437	0.10619	-0.017482	0.0287914	0	0	0	0	0	0	0	-1.455820003	0	0	0	0
0.29	-164.5264	1261.9939	61.5306	0.10442	-0.016672	0.0284659	0	0	0	0	0	0	0	-1.608253319	0	0	0	0
0.295	-164.6704	1355.4439	64.4329	0.10292	-0.016135	0.0281423	0	0	0	0	0	0	0	-1.840306997	0	0	0	0
0.3	-164.3774	1449.5846	66.9411	0.10165	-0.01583	0.0278375	0	0	0	0	0	0	0	-2.18335941	0	0	0	0
0.305	-163.0387	1543.7716	68.6735	0.10058	-0.015705	0.0275573	0	0	0	0	0	0	0	-2.612396756	0	0	0	0
0.31	-159.5275	1635.1547	69.5714	0.09974	-0.015714	0.0272808	0	0	0	0	0	0	0	-3.04893709	0	0	0	0
0.315	-152.761	1719.2508	70.0149	0.09919	-0.015821	0.0269699	0	0	0	0	0	0	0	-3.388094375	0	0	0	0
0.32	-141.9961	1790.9496	70.5255	0.09897	-0.016	0.0265825	0	0	0	0	0	0	0	-3.529259119	0	0	0	0
0.325	-127.0291	1845.8391	71.5349	0.09912	-0.016232	0.0260837	0	0	0	0	0	0	0	-3.394132962	0	0	0	0
0.33	-108.2684	1881.3058	73.3207	0.09965	-0.016502	0.0254536	0	0	0	0	0	0	0	-2.933082347	0	0	0	0
0.335	-86.6104	1896.9983	75.9879	0.10052	-0.016802	0.0246899	0	0	0	0	0	0	0	-2.153884247	0	0	0	0
0.34	-63.1583	1894.5843	79.4403	0.10168	-0.01712	0.0238082	0	0	0	0	0	0	0	-1.118310626	0	0	0	0
0.345	-38.9981	1876.9423	83.4196	0.10306	-0.017444	0.0228366	0	0	0	0	0	0	0	0.064015187	0	0	0	0
0.35	-15.1064	1847.1226	87.6295	0.10459	-0.017759	0.0218065	0	0	0	0	0	0	0	1.263684351	0	0	0	0
0.355	7.8129	1807.6175	91.8117	0.10623	-0.018052	0.02074834	0	0	0	0	0	0	0	2.354389882	0	0	0	0
0.36	29.4612	1760.0998	95.6779	0.10793	-0.018301	0.01969331	0	0	0	0	0	0	0	3.236280282	0	0	0	0
0.365	49.8101	1705.4306	98.7989	0.10968	-0.018481	0.0186691	0	0	0	0	0	0	0	3.848703161	0	0	0	0
0.37	68.8569	1643.8766	100.6879	0.11148	-0.018562	0.0176948	0	0	0	0	0	0	0	4.169473842	0	0	0	0
0.375	86.4421	1575.4193	101.0434	0.11336	-0.018506	0.0167762	0	0	0	0	0	0	0	4.20119579	0	0	0	0
0.38	102.2156	1500.0558	99.8216	0.11535	-0.018271	0.015903	0	0	0	0	0	0	0	3.965595939	0	0	0	0
0.385	115.7359	1418.0423	97.0972	0.11752	-0.017803	0.0150556	0	0	0	0	0	0	0	3.51710863	0	0	0	0
0.39	126.5788	1330.0884	92.9461	0.1199	-0.017038	0.0142138	0	0	0	0	0	0	0	2.931223288	0	0	0	0
0.395	134.3811	1237.4209	87.5183	0.12253	-0.015894	0.0133608	0	0	0	0	0	0	0	2.284264754	0	0	0	0
0.4	138.8181	1141.6564	81.0999	0.12544	-0.014286	0.0124715	0	0	0	0	0	0	0	1.646073713	0	0	0	0
0.405	139.6487	1044.5977	74.1128	0.12863	-0.012124	0.0115051	0	0	0	0	0	0	0	1.083897788	0	0	0	0
0.41	136.8161	948.0664	67.0323	0.13209	-0.0093228	0.0104041	0	0	0	0	0	0	0	0.665754109	0	0	0	0
0.415	130.4343	853.848	60.1479	0.13577	-0.0058113	0.009107	0	0	0	0	0	0	0	0.430847999	0	0	0	0
0.42	120.8259	763.6199	53.4712	0.13953	-0.0015649	0.007565	0	0	0	0	0	0	0	0.368611092	0	0	0	0
0.425	108.6716	678.6695	46.9652	0.14316	0.0033382	0.00575	0	0	0	0	0	0	0	0.435487791	0	0	0	0
0.43	95.3327	599.382	40.8054	0.1464	0.0086822	0.003664	0	0	0	0	0	0	0	0.577858556	0	0	0	0
0.435	82.8673	524.9683	35.3339	0.14899	0.014153	0.00134	0	0	0	0	0	0	0	0.741740678	0	0	0	0
0.44	73.1306	454.2069	30.773	0.15086	0.019437	-0.00117	0	0	0	0	0	0	0	0.884925893	0	0	0	0
0.445	66.6896	386.6565	27.0451	0.15206	0.024312	-0.0038	0	0	0	0	0	0	0	0.983335556	0	0	0	0
0.45	62.6631	323.0688	23.8684	0.15278	0.028656	-0.006463	0	0	0	0	0	0	0	1.025559462	0	0	0	0
0.455	59.4564	264.7533	20.9882	0.15325	0.032415	-0.009076	0	0	0	0	0	0	0	1.011426845	0	0	0	0
0.46	55.678	212.7885	18.2443	0.1537	0.035581	-0.011596	0	0	0	0	0	0	0	0.950294071	0	0	0	0
0.465	50.6252	167.7058	15.5074	0.15437	0.03822	-0.014052	0	0	0	0	0	0	0	0.856336836	0	0	0	0
0.47	44.2312	129.6744	12.6382	0.15547	0.040485	-0.016533	0	0	0	0	0	0	0	0.746386679	0	0	0	0
0.475	36.8504	98.7107	9.597	0.15715	0.0426	-0.01913	0	0	0	0	0	0	0	0.64293662	0	0	0	0
0.48	29.2129	74.6096	6.6144	0.15942	0.044748	-0.02187	0	0	0	0	0	0	0	0.566002344	0	0	0	0
0.485	22.1638	56.7851	4.084	0.16229	0.046753	-0.024766	0	0	0	0	0	0	0	0.533432314	0	0	0	0
0.49	16.2574	44.2984	2.2663	0.16586	0.04777	-0.027729	0	0	0	0	0	0	0	0.559241346	0	0	0	0
0.495	11.7042	36.0131	1.1792	0.17073	0.045963	-0.031311	0	0	0	0	0	0	0	0.643791799	0	0	0	0
0.5	0	0	0	0	0	0	0	0	0	0	0	0	0	0	0	0	0	0
0.505	0	0	0	0	0	0	0	0	0	0	0	0	0	0	0	0	0	0
0.51	0	0	0	0	0	0	0	0	0	0	0	0	0	0	0	0	0	0
0.515	0	0	0	0	0	0	0	0	0	0	0	0	0	0	0	0	0	0
0.52	0	0	0	0	0	0	0	0	0	0	0	0	0	0	0	0	0	0
0.525	0	0	0	0	0	0	0	0	0	0	0	0	0	0	0	0	0	0
0.53	0	0	0	0	0	0	0	0	0	0	0	0	0	0	0	0	0	0
0.535	0	0	0	0	0	0	0	0	0	0	0	0	0	0	0	0	0	0
0.54	0	0	0	0	0	0	0	0	0	0	0	0	0	0	0	0	0	0
0.545	0	0	0	0	0	0	0	0	0	0	0	0	0	0	0	0	0	0
0.55	0	0	0	0	0	0	0	0	0	0	0	0	0	0	0	0	0	0
0.555	0	0	0	0	0	0	0	0	0	0	0	0	0	0	0	0	0	0
0.56	0	0	0	0	0	0	0	0	0	0	0	0	0	0	0	0	0	0
0.565	0	0	0	0	0	0	0	0	0	0	0	0	0	0	0	0	0	0
0.57	0	0	0	0	0	0	0	0	0	0	0	0	0	0	0	0	0	0
0.575	0	0	0	0	0	0	6.7666	20.8223	0.6085	0.24535	-0.022122	-0.040211	0	0	0	0	-0.69257873	0
0.58	0	0	0	0	0	0	5.5678	22.9504	0.2132	0.23492	-0.014889	-0.042233	0	0	0	0	-0.908529219	0
0.585	0	0	0	0	0	0	2.3203	31.2084	-0.8693	0.22534	-0.0077215	-0.043905	0	0	0	0	-1.243927513	0
0.59	0	0	0	0	0	0	-3.9111	49.2914	-2.9482	0.27166	-0.040258	0.045482	0	0	0	0	-1.492911912	0
0.595	0	0	0	0	0	0	-13.5793	80.2228	-6.1771	0.2285	-0.037342	0.017998	0	0	0	0	-1.5666821	0
0.6	0	0	0	0	0	0	-26.1952	125.7022	-9.9372	0.20345	-0.033942	0.0046618	0	0	0	0	-1.418022058	0
0.605	0	0	0	0	0	0	-41.204	187.7183	-12.2861	0.18525	-0.031484	-0.0026549	0	0	0	0	-0.995837566	0
0.61	0	0	0	0	0	0	-57.8938	268.8135	-12.3513	0.17097	-0.029764	-0.0066926	0	0	0	0	-0.377304616	0
0.615	0	0	0	0	0	0	-75.6336	370.0015	-11.4074	0.15947	-0.028336	-0.0088896	0	0	0	0	0.263135593	0
0.62	0	0	0	0	0	0	-94.2435	487.1435	-12.1564	0.15045	-0.026779	-0.0099674	0	0	0	0	0.750503351	0
0.625	0	0	0	0	0	0	-112.7054	611.5497	-16.8122	0.14358	-0.025004	-0.010314	0	0	0	0	1.027204183	0
0.63	0	0	0	0	0	0	-129.4186	735.8012	-25.6863	0.13829	-0.023208	-0.010203	0	0	0	0	1.155400506	0
0.635	0	0	0	0	0	0	-143.6184	854.975	-36.6431	0.13418	-0.021502	-0.0098634	0	0	0	0	1.21226202	0
0.64	0	0	0	0	0	0	-154.2999	966.5107	-46.5403	0.13094	-0.019939	-0.0094753	0	0	0	0	1.2616582	0
0.645	0	0	0	0	0	0	-160.7292	1070.2231	-53.666	0.12832	-0.01858	-0.0091192	0	0	0	0	1.343585488	0
0.65	0	0	0	0	0	0	-163.6136	1167.8019	-58.2437	0.12619	-0.017482	-0.0087914	0	0	0	0	1.455820003	0
0.655	0	0	0	0	0	0	-164.5264	1261.9939	-61.5306	0.12442	-0.016672	-0.0084659	0	0	0	0	1.608253319	0
0.66	0	0	0	0	0	0	-164.6704	1355.4439	-64.4329	0.12292	-0.016135	-0.0081423	0	0	0	0	1.840306997	0
0.665	0	0	0	0	0	0	-164.3774	1449.5846	-66.9411	0.12165	-0.01583	-0.0078375	0	0	0	0	2.18335941	0
0.67	0	0	0	0	0	0	-163.0387	1543.7716	-68.6735	0.12058	-0.015705	-0.0075573	0	0	0	0	2.612396756	0
0.675	0	0	0	0	0	0	-159.5275	1635.1547	-69.5714	0.11974	-0.015714	-0.0072808	0	0	0	0	3.04893709	0
0.68	0	0	0	0	0	0	-152.761	1719.2508	-70.0149	0.11919	-0.015821	-0.0069699	0	0	0	0	3.388094375	0
0.685	0	0	0	0	0	0	-141.9961	1790.9496	-70.5255	0.11897	-0.016	-0.0065825	0	0	0	0	3.529259119	0
